<svg width="467" height="398" viewBox="0 0 467 398" fill="none" xmlns="http://www.w3.org/2000/svg">
<path fill-rule="evenodd" clip-rule="evenodd" d="M166.855 275.69C166.855 292.59 185.151 303.153 199.787 294.703L377.616 192.033C392.252 183.583 392.252 162.457 377.616 154.007L199.787 51.3371C185.151 42.8869 166.855 53.4496 166.855 70.35L166.855 275.69ZM210.242 221.825C210.348 229.082 218.404 233.733 224.741 230.197L301.745 187.233C308.082 183.697 307.949 174.626 301.505 170.905L223.208 125.7C216.764 121.98 208.842 126.4 208.948 133.657L210.242 221.825Z" fill="#4565E5"/>
<path fill-rule="evenodd" clip-rule="evenodd" d="M96.9788 235.346C96.9788 252.247 115.274 262.809 129.91 254.359L307.739 151.689C322.376 143.239 322.376 122.114 307.739 113.664L129.91 10.9938C115.274 2.54361 96.9788 13.1063 96.9788 30.0067L96.9788 235.346ZM140.365 181.482C140.472 188.739 148.527 193.39 154.865 189.854L231.868 146.89C238.206 143.354 238.073 134.283 231.629 130.562L153.331 85.3573C146.887 81.6368 138.965 86.0569 139.072 93.3136L140.365 181.482Z" fill="#3AC633"/>
<path fill-rule="evenodd" clip-rule="evenodd" d="M237.004 316.189C237.004 333.09 255.299 343.652 269.935 335.202L447.764 232.532C462.4 224.082 462.4 202.957 447.764 194.507L269.935 91.8368C255.299 83.3866 237.004 93.9493 237.004 110.85L237.004 316.189ZM280.389 262.326C280.496 269.582 288.551 274.233 294.889 270.697L371.892 227.733C378.23 224.197 378.097 215.126 371.653 211.405L293.355 166.201C286.911 162.48 278.989 166.9 279.096 174.157L280.389 262.326Z" fill="#F8AC16"/>
<path fill-rule="evenodd" clip-rule="evenodd" d="M209.346 160.779L208.948 133.657C208.841 126.4 216.763 121.98 223.208 125.701L301.505 170.905C307.949 174.626 308.082 183.697 301.744 187.233L279.72 199.522L280.386 248.169L377.616 192.033C392.252 183.582 392.252 162.457 377.616 154.007L199.787 51.337C185.151 42.8869 166.855 53.4496 166.855 70.3499L166.855 184.853L209.346 160.779Z" fill="#4565E5"/>
</svg>
